<?xml version="1.0" standalone="no"?>
<!DOCTYPE svg PUBLIC "-//W3C//DTD SVG 20010904//EN"
 "http://www.w3.org/TR/2001/REC-SVG-20010904/DTD/svg10.dtd">
<svg version="1.0" xmlns="http://www.w3.org/2000/svg"
 width="1024.000000pt" height="1024.000000pt" viewBox="0 0 1024.000000 1024.000000"
 preserveAspectRatio="xMidYMid meet">
<metadata>
Created by potrace 1.11, written by Peter Selinger 2001-2013
</metadata>
<g transform="translate(0.000000,1024.000000) scale(0.100000,-0.100000)"
fill="#000000" stroke="none">
<path d="M3852 9635 c-7 -8 -10 -15 -7 -15 3 0 -3 -8 -12 -19 -10 -10 -22 -18
-28 -17 -5 1 -9 -5 -7 -11 1 -7 -2 -13 -8 -13 -5 0 -20 -11 -33 -24 -14 -14
-28 -22 -31 -19 -3 4 -6 -1 -6 -10 0 -9 -6 -16 -12 -14 -7 1 -12 -4 -10 -10 1
-7 -4 -13 -11 -13 -14 0 -47 -31 -47 -44 0 -4 5 -4 12 0 7 5 8 3 4 -5 -5 -7
-14 -10 -22 -7 -8 3 -14 1 -14 -5 0 -6 -11 -20 -25 -31 -14 -11 -23 -23 -20
-27 2 -5 -4 -16 -15 -26 -11 -10 -20 -24 -20 -32 0 -7 -7 -16 -15 -19 -8 -4
-15 -13 -15 -20 0 -8 -7 -17 -15 -20 -8 -4 -15 -11 -15 -16 0 -6 -24 -32 -52
-60 -29 -27 -52 -54 -50 -59 1 -6 -1 -9 -5 -6 -5 2 -20 -9 -35 -24 -15 -16
-25 -29 -23 -29 2 0 -9 -15 -26 -32 -16 -18 -29 -36 -29 -41 0 -4 -4 -6 -9 -2
-5 3 -12 -4 -16 -14 -3 -11 -12 -18 -20 -15 -7 3 -16 0 -21 -7 -4 -7 -3 -10 3
-6 6 4 13 0 16 -8 4 -10 1 -12 -10 -8 -11 4 -14 2 -9 -5 4 -7 1 -12 -8 -12 -9
0 -16 -5 -16 -11 0 -5 6 -7 13 -4 6 3 2 -2 -10 -11 -13 -9 -23 -23 -23 -31 0
-7 -7 -16 -15 -19 -8 -4 -12 -10 -9 -15 3 -5 2 -9 -3 -8 -4 1 -15 1 -23 0 -13
-1 -13 -2 0 -11 11 -7 12 -10 2 -10 -7 0 -20 -7 -28 -15 -9 -8 -12 -15 -7 -15
4 0 -3 -7 -15 -16 -12 -8 -19 -20 -16 -26 5 -7 1 -9 -9 -5 -12 4 -14 2 -10
-10 4 -11 3 -14 -6 -9 -6 4 -10 4 -9 -1 4 -14 -35 -73 -49 -73 -7 0 -10 -6 -7
-14 3 -7 -2 -21 -11 -30 -9 -9 -14 -16 -11 -16 3 0 -2 -8 -11 -18 -10 -11 -22
-17 -26 -14 -5 2 -4 -6 3 -18 7 -12 8 -20 3 -17 -4 3 -17 -2 -28 -10 -17 -13
-17 -15 -2 -10 15 6 16 4 7 -13 -6 -11 -13 -20 -16 -20 -3 0 -2 4 1 10 3 6 -1
7 -9 4 -18 -7 -22 -24 -5 -24 5 0 7 -5 4 -10 -4 -6 -11 -8 -16 -5 -5 4 -10 1
-10 -4 -1 -6 -2 -17 -3 -23 -1 -7 -9 -12 -18 -12 -10 1 -17 -1 -16 -5 0 -3 0
-15 -1 -26 -1 -17 -3 -18 -12 -5 -8 12 -10 9 -6 -13 2 -15 0 -30 -5 -33 -4 -3
-8 -2 -7 3 3 18 -1 33 -10 33 -4 0 -6 -12 -3 -26 3 -19 1 -25 -6 -20 -8 5 -10
1 -6 -9 4 -8 1 -22 -6 -30 -6 -8 -8 -20 -4 -27 6 -10 5 -11 -7 -1 -13 10 -15
8 -15 -15 1 -18 -4 -26 -13 -24 -11 2 -12 0 -3 -11 15 -17 -3 -38 -26 -30 -10
4 -13 2 -8 -5 4 -7 2 -12 -4 -12 -6 0 -8 -5 -4 -12 4 -7 3 -8 -4 -4 -13 8 -46
-50 -37 -64 3 -6 1 -10 -4 -10 -6 0 -11 -7 -11 -15 0 -8 -5 -15 -12 -15 -6 0
-9 -3 -5 -6 3 -4 -1 -13 -9 -21 -8 -8 -11 -20 -7 -26 3 -7 3 -9 -2 -5 -12 11
-38 -29 -29 -45 4 -6 4 -9 -1 -5 -11 10 -45 -46 -45 -73 0 -13 -4 -18 -12 -13
-8 5 -9 0 -6 -14 4 -12 2 -22 -4 -22 -6 0 -7 -7 -4 -16 3 -8 2 -12 -3 -9 -5 3
-12 1 -16 -5 -3 -5 0 -10 7 -11 7 0 4 -4 -7 -9 -11 -5 -14 -9 -7 -9 7 -1 10
-6 7 -11 -4 -6 -12 -7 -18 -3 -7 4 -5 -2 3 -12 8 -10 10 -16 4 -12 -7 4 -15 0
-18 -9 -4 -10 -2 -13 7 -9 6 4 1 -3 -13 -14 -17 -14 -20 -21 -10 -21 8 -1 4
-6 -10 -12 -15 -6 -20 -12 -13 -15 10 -3 9 -8 -2 -20 -8 -8 -13 -18 -10 -23 3
-4 -2 -10 -10 -14 -9 -3 -12 -12 -8 -22 5 -13 3 -15 -7 -9 -9 5 -11 4 -6 -4 4
-6 2 -19 -5 -27 -6 -8 -9 -17 -6 -21 4 -3 1 -13 -6 -21 -10 -12 -9 -16 1 -20
9 -3 7 -9 -7 -22 -12 -9 -22 -27 -24 -38 -2 -12 -7 -25 -12 -29 -4 -5 -5 -2
-1 5 4 6 2 12 -3 12 -10 0 -13 -14 -10 -37 0 -3 -6 -10 -15 -15 -9 -5 -16 -18
-16 -28 0 -11 -6 -20 -12 -20 -9 0 -8 -4 2 -10 13 -9 7 -14 -12 -11 -4 0 -5
-5 -2 -13 3 -8 0 -17 -6 -21 -9 -6 -9 -10 1 -16 12 -7 12 -10 0 -21 -10 -10
-12 -10 -7 0 4 6 5 12 2 12 -3 0 -10 -9 -16 -21 -9 -15 -8 -24 2 -37 11 -13
11 -14 -1 -7 -11 6 -13 4 -7 -10 5 -14 4 -16 -7 -6 -12 9 -13 7 -9 -14 3 -19
0 -25 -14 -26 -14 -1 -13 -3 6 -9 14 -4 19 -8 12 -9 -7 -1 -10 -5 -7 -11 4 -6
-1 -7 -12 -3 -15 6 -16 4 -5 -9 10 -13 10 -19 -2 -31 -8 -8 -12 -17 -9 -21 3
-3 -1 -14 -10 -24 -10 -10 -14 -22 -11 -25 4 -4 1 -15 -7 -24 -13 -16 -12 -17
3 -5 12 10 18 10 24 1 5 -8 3 -9 -6 -4 -10 6 -12 4 -7 -8 4 -11 2 -14 -9 -10
-7 3 -14 0 -14 -6 0 -6 4 -11 8 -11 5 0 9 -7 9 -15 0 -12 -3 -12 -16 -3 -9 7
-13 8 -8 3 4 -4 0 -19 -8 -31 -13 -21 -13 -24 3 -33 9 -6 11 -11 5 -11 -7 0
-13 -5 -13 -11 0 -5 6 -7 13 -3 8 5 8 3 -2 -9 -12 -15 -10 -18 10 -26 18 -7
19 -10 7 -10 -10 -1 -17 -4 -17 -8 3 -19 -2 -33 -12 -33 -6 0 -7 5 -2 13 11
18 13 38 2 31 -5 -3 -7 -9 -4 -14 3 -5 0 -12 -6 -16 -9 -5 -7 -11 6 -21 18
-13 18 -13 -1 -13 -16 0 -17 -2 -4 -10 13 -8 13 -10 -1 -10 -9 0 -24 -12 -33
-27 l-17 -28 20 24 c12 13 21 19 21 14 0 -5 -9 -19 -21 -31 -11 -12 -18 -26
-15 -31 3 -5 -1 -12 -10 -15 -13 -5 -14 -9 -4 -21 11 -13 7 -19 -12 -16 -8 1
-5 -20 6 -38 6 -9 5 -12 -1 -8 -6 4 -14 -1 -18 -10 -3 -10 -1 -19 4 -21 6 -2
11 -8 11 -14 0 -6 -7 -8 -15 -4 -13 4 -13 2 -5 -14 14 -26 13 -30 -7 -31 -11
0 -13 -3 -6 -6 9 -3 8 -11 -5 -31 -13 -21 -13 -24 -1 -15 12 10 15 9 15 -6 0
-11 -6 -17 -13 -14 -9 4 -11 0 -6 -13 5 -13 3 -16 -9 -12 -11 5 -14 1 -10 -18
2 -13 8 -24 12 -24 11 0 7 -25 -8 -42 -9 -11 -9 -18 1 -28 8 -9 9 -11 0 -6 -8
4 -11 -3 -11 -24 1 -19 -6 -37 -18 -46 -10 -9 -13 -13 -6 -9 16 8 16 -7 0 -24
-11 -11 -10 -13 2 -9 11 4 16 -1 18 -15 1 -17 -1 -18 -8 -7 -5 8 -12 11 -16 7
-4 -4 -3 -12 4 -19 8 -8 7 -18 -7 -37 -9 -14 -18 -42 -20 -61 -1 -19 -8 -38
-17 -43 -8 -4 -12 -12 -9 -17 3 -5 1 -12 -5 -15 -8 -5 -7 -11 1 -21 10 -12 9
-13 -7 -7 -16 6 -17 5 -6 -9 9 -11 10 -18 2 -23 -6 -3 -7 -11 -4 -17 4 -6 2
-8 -3 -5 -9 6 -26 -26 -24 -44 0 -4 -7 -6 -17 -5 -9 0 -16 -5 -14 -13 1 -7 -3
-19 -9 -27 -6 -8 -8 -14 -3 -14 5 0 3 -4 -5 -9 -8 -5 -15 -22 -17 -37 -2 -16
-10 -34 -18 -40 -9 -6 -13 -14 -9 -17 3 -4 1 -7 -6 -7 -7 0 -9 -4 -6 -10 3 -5
1 -10 -4 -10 -6 0 -10 -3 -9 -7 3 -15 -29 -78 -55 -109 -15 -18 -27 -38 -27
-46 0 -7 -11 -30 -25 -49 -13 -20 -21 -39 -18 -43 4 -3 1 -6 -5 -6 -7 0 -12
-6 -12 -14 0 -8 -7 -22 -16 -30 -8 -9 -13 -16 -9 -16 4 0 -1 -7 -9 -16 -9 -8
-16 -22 -16 -30 0 -8 -4 -13 -9 -10 -5 4 -8 -5 -6 -19 1 -16 -3 -25 -12 -25
-8 0 -11 -5 -8 -10 3 -6 -1 -13 -9 -16 -9 -3 -13 -10 -10 -15 3 -5 0 -9 -6 -9
-7 0 -9 -7 -6 -17 4 -10 4 -14 0 -11 -11 12 -43 -36 -33 -48 6 -8 4 -17 -6
-28 -9 -9 -13 -16 -8 -16 4 0 0 -5 -9 -11 -10 -5 -18 -17 -18 -24 0 -8 -5 -15
-12 -15 -6 0 -8 -3 -5 -6 3 -4 1 -16 -5 -28 -7 -11 -11 -24 -10 -28 1 -5 -3
-8 -9 -8 -5 0 -8 -4 -4 -9 3 -5 -1 -15 -8 -23 -8 -7 -13 -23 -12 -35 1 -16 -2
-20 -10 -13 -8 6 -12 6 -12 -3 -1 -24 -8 -42 -23 -55 -8 -8 -9 -11 -2 -7 7 4
-1 -15 -18 -41 -16 -26 -30 -56 -30 -65 0 -10 -5 -21 -11 -24 -6 -4 -8 -14 -5
-22 3 -8 1 -11 -4 -8 -6 3 -10 0 -11 -7 -2 -30 -8 -51 -22 -66 -8 -10 -13 -27
-11 -38 2 -12 -3 -27 -11 -34 -8 -7 -12 -16 -9 -21 3 -5 1 -9 -5 -9 -6 0 -8
-7 -5 -15 4 -8 2 -15 -3 -15 -9 0 -13 -14 -14 -53 0 -11 -5 -15 -12 -10 -7 4
-6 0 2 -10 7 -9 10 -17 5 -17 -5 0 -9 -22 -9 -50 0 -27 4 -50 8 -50 5 0 5 -5
1 -12 -4 -7 -8 -25 -9 -40 -1 -15 -4 -30 -7 -33 -10 -11 -68 -13 -68 -4 0 6
-5 7 -10 4 -6 -4 -16 -2 -23 3 -7 5 -27 9 -44 10 -18 0 -34 1 -35 2 -6 3 -44
12 -64 14 -11 1 -26 6 -34 11 -8 5 -31 9 -52 9 -21 0 -38 4 -38 8 0 4 -9 8
-19 8 -11 0 -21 4 -23 10 -1 5 -27 11 -55 13 -32 3 -50 0 -47 -5 4 -6 -3 -5
-15 1 -14 8 -21 8 -21 1 0 -6 -11 -8 -24 -6 -31 6 -39 -3 -23 -22 10 -13 9
-14 -3 -7 -10 6 -9 2 3 -12 13 -15 28 -20 53 -18 19 2 34 0 34 -5 0 -4 14 -6
30 -5 17 1 30 -1 30 -6 0 -4 9 -6 20 -4 11 2 18 0 15 -4 -3 -5 15 -15 40 -22
25 -7 45 -18 45 -24 0 -5 5 -3 10 5 5 8 10 10 10 4 0 -6 6 -11 13 -11 47 -3
80 -12 87 -24 5 -7 12 -10 16 -6 4 4 14 1 22 -6 13 -10 14 -9 7 3 -6 12 -5 13
5 3 9 -9 19 -9 33 -2 15 9 18 8 12 -2 -6 -9 -4 -11 8 -6 9 3 18 -1 21 -10 4
-9 14 -13 26 -10 11 3 23 0 27 -5 4 -7 1 -8 -8 -3 -8 4 -4 -2 8 -13 16 -16 20
-29 16 -49 -11 -58 -8 -93 7 -98 13 -5 13 -7 0 -16 -11 -6 -12 -11 -3 -17 19
-12 -18 -50 -46 -45 -13 2 -31 -2 -39 -9 -12 -10 -14 -10 -8 0 5 8 0 12 -16
13 -91 4 -115 3 -127 -6 -11 -7 -13 -7 -7 3 6 10 -2 12 -36 7 -23 -4 -63 -8
-88 -9 -25 -1 -51 -5 -58 -10 -6 -4 -12 -3 -12 1 0 5 -18 9 -40 9 -22 0 -40
-4 -40 -10 0 -6 -5 -5 -12 2 -14 14 -32 16 -24 4 6 -10 -25 -9 -41 1 -15 9
-81 -7 -108 -27 -17 -12 -17 -15 -3 -29 9 -9 18 -13 22 -10 3 4 6 1 6 -5 0 -6
7 -9 15 -6 8 4 22 1 29 -5 11 -10 17 -8 25 6 6 10 11 13 11 6 0 -11 30 -10 49
2 5 3 12 1 15 -4 3 -4 19 -7 36 -5 22 3 29 0 25 -9 -4 -6 -1 -5 7 3 20 23 129
15 114 -8 -2 -4 7 -7 20 -7 15 0 24 6 24 15 0 13 1 13 10 0 9 -13 11 -13 20 0
8 12 10 12 10 1 0 -10 3 -11 14 -2 11 9 15 9 19 -1 4 -10 8 -10 16 2 10 13 11
13 11 0 0 -13 1 -13 10 0 9 13 10 13 10 0 0 -12 2 -12 9 -1 6 10 10 10 16 1 6
-9 10 -9 16 1 7 12 9 12 9 0 0 -10 3 -11 14 -2 11 9 16 9 21 0 6 -8 10 -7 16
2 7 12 9 12 9 0 0 -11 3 -11 15 -1 12 10 16 9 21 -4 3 -9 10 -13 16 -10 10 7
48 -23 48 -38 0 -14 -27 -38 -34 -31 -3 4 -6 -1 -6 -10 0 -9 12 -28 26 -44 14
-15 21 -29 15 -31 -5 -2 -7 -10 -4 -18 3 -8 1 -14 -5 -14 -5 0 -12 -14 -16
-31 -3 -17 -10 -28 -16 -24 -5 3 -10 0 -10 -7 0 -11 -2 -11 -9 0 -6 11 -11 10
-25 -3 -9 -9 -16 -11 -16 -5 0 6 -4 8 -10 5 -5 -3 -10 -1 -10 6 0 7 -4 8 -13
2 -6 -5 -29 -9 -49 -7 -24 1 -35 -2 -31 -9 4 -6 1 -7 -8 -1 -20 12 -41 12 -66
-3 -11 -7 -31 -10 -42 -8 -12 2 -21 0 -21 -6 0 -5 -11 -7 -25 -5 -14 3 -25 1
-25 -3 0 -5 -11 -7 -25 -6 -15 2 -29 -3 -35 -13 -7 -12 -9 -13 -10 -3 0 11 -3
11 -15 1 -12 -10 -15 -10 -15 0 0 10 -3 10 -14 1 -10 -9 -16 -9 -21 -1 -4 7
-11 8 -18 2 -7 -5 -29 -10 -49 -11 -59 -2 -68 -4 -68 -13 0 -5 -5 -6 -12 -2
-8 5 -9 2 -5 -10 5 -13 3 -17 -7 -13 -8 3 -17 -1 -20 -9 -3 -9 -1 -12 4 -9 6
3 10 -1 10 -9 0 -11 10 -16 31 -16 21 0 28 -4 23 -12 -6 -9 -3 -9 9 0 9 8 21
11 27 7 5 -3 10 -2 10 3 0 10 8 12 77 15 29 1 53 5 53 8 0 3 26 5 58 5 33 -1
77 5 106 16 27 9 65 17 85 17 20 0 52 0 71 1 19 1 40 1 45 0 21 -5 36 0 30 10
-3 6 -1 10 4 10 6 0 11 -4 11 -9 0 -10 19 -9 37 2 6 4 15 3 18 -3 5 -8 12 -7
23 2 9 7 13 8 9 2 -3 -6 3 -17 14 -24 10 -8 19 -20 19 -28 0 -8 5 -10 13 -6 8
5 8 2 -2 -9 -10 -13 -10 -17 -1 -17 7 0 10 -7 6 -15 -3 -8 1 -21 9 -29 8 -7
11 -16 8 -20 -4 -3 -1 -6 6 -6 7 0 9 -5 6 -10 -3 -6 -2 -10 3 -10 5 0 9 -6 9
-12 0 -19 34 -88 43 -88 5 0 14 -16 20 -35 6 -19 17 -41 23 -48 17 -18 35 -48
47 -74 5 -13 14 -23 20 -23 6 0 8 -4 5 -10 -3 -5 0 -10 7 -10 9 0 9 -3 -2 -10
-13 -8 -13 -10 2 -10 11 0 18 -10 20 -27 2 -17 8 -27 16 -25 8 1 11 -2 7 -9
-4 -6 2 -17 14 -25 12 -8 21 -22 21 -30 0 -8 6 -14 13 -14 9 0 9 -2 -1 -9 -10
-6 -5 -11 17 -20 19 -8 28 -18 24 -27 -5 -13 8 -19 30 -15 5 1 6 -3 2 -9 -3
-5 -1 -10 4 -10 6 0 11 -7 11 -16 0 -8 4 -12 10 -9 5 3 10 1 10 -5 0 -6 5 -8
12 -4 7 4 8 3 4 -4 -8 -14 23 -64 35 -56 5 3 9 -2 9 -10 0 -8 10 -22 22 -30
12 -9 18 -16 13 -16 -6 0 -6 -3 0 -8 6 -4 23 -23 39 -42 15 -19 48 -55 71 -80
66 -70 455 -444 470 -452 7 -5 34 -28 59 -53 47 -45 148 -115 167 -115 6 0 7
-4 4 -10 -6 -9 79 -70 97 -70 7 0 125 -77 138 -90 3 -3 34 -20 70 -39 54 -28
129 -78 150 -101 3 -3 12 -6 20 -8 8 -2 22 -9 30 -16 8 -7 59 -34 112 -62 54
-27 98 -55 98 -62 0 -7 5 -10 10 -7 6 3 10 -1 10 -9 0 -9 3 -15 8 -14 8 1 40
-9 66 -24 11 -5 30 -11 44 -13 14 -1 30 -9 36 -16 23 -30 289 -146 373 -164
17 -3 37 -12 43 -20 15 -18 104 -47 150 -50 20 -1 46 -7 57 -14 12 -6 29 -11
38 -11 9 0 30 -9 46 -21 16 -11 46 -22 67 -23 20 -1 52 -10 71 -20 19 -10 30
-12 26 -5 -6 8 -4 10 6 3 8 -4 19 -9 24 -10 6 -1 24 -5 40 -8 65 -14 112 -20
148 -20 20 0 37 -4 37 -9 0 -5 8 -7 18 -5 10 3 23 -1 31 -9 9 -10 16 -11 25
-4 9 7 16 7 24 -1 7 -7 12 -8 12 -2 0 11 24 11 50 1 47 -18 89 -24 99 -14 8 8
11 7 11 -2 0 -10 3 -11 13 -2 10 8 19 7 33 -3 15 -11 22 -12 33 -3 12 10 13 9
6 -2 -6 -11 -3 -13 17 -8 14 4 28 4 32 0 9 -9 46 -11 46 -2 0 9 20 6 38 -5 8
-4 46 -10 85 -11 40 -2 74 -5 77 -6 16 -5 37 -3 48 5 8 5 12 4 12 -4 0 -9 4
-9 13 -2 8 7 18 7 27 2 9 -5 19 -5 27 2 9 7 13 7 13 -2 0 -9 4 -9 13 -2 8 7
18 7 27 2 9 -5 19 -5 27 2 9 7 13 7 13 -2 0 -9 4 -9 13 -2 8 7 18 7 27 2 9 -5
19 -5 27 2 9 7 13 7 13 -1 0 -7 5 -9 13 -4 15 9 33 10 75 2 17 -4 34 -3 37 2
3 4 16 5 28 0 12 -5 69 -9 126 -9 57 -1 106 -4 109 -6 2 -3 16 1 31 8 24 13
59 17 246 32 39 2 86 10 105 16 19 7 60 12 91 13 30 1 59 4 65 7 13 8 61 18
113 23 24 2 58 9 76 15 30 10 101 19 186 23 21 1 45 9 55 18 12 10 34 15 59
14 22 -2 59 6 83 16 23 10 42 16 42 14 0 -3 30 7 68 21 37 14 83 27 102 30 19
2 44 13 55 24 14 14 35 20 64 20 26 0 54 8 69 19 27 18 140 58 155 53 4 -1 42
15 85 36 42 21 101 47 130 56 29 10 65 28 80 40 15 13 34 24 42 25 49 5 68 9
95 21 49 20 60 27 59 36 -1 25 27 32 129 33 59 0 113 4 120 8 14 8 27 12 77
19 49 7 62 12 56 22 -3 5 8 8 25 7 16 -1 34 4 40 12 6 7 17 13 23 13 6 0 23 6
37 14 14 7 37 16 52 20 15 3 27 11 27 17 0 6 4 8 9 4 5 -3 12 -1 16 5 4 6 11
8 16 5 5 -4 9 -1 9 5 0 6 5 8 12 4 6 -4 17 1 25 11 7 11 13 15 13 11 0 -4 36
29 80 73 44 45 80 84 80 88 0 11 35 32 53 33 9 0 17 -5 17 -10 0 -7 7 -7 21 1
15 8 19 8 15 0 -4 -6 -2 -11 4 -11 7 0 23 -9 37 -20 14 -11 34 -20 44 -20 11
0 19 -4 19 -10 0 -5 7 -10 15 -10 8 0 15 -6 15 -12 0 -9 4 -8 10 2 6 10 10 11
10 3 0 -7 9 -13 20 -13 11 0 20 -5 20 -12 0 -6 3 -9 6 -5 7 6 29 -12 32 -26 3
-13 27 -35 33 -31 4 2 12 -3 19 -11 7 -8 16 -13 20 -10 5 3 16 -2 24 -11 9 -8
16 -12 16 -8 0 3 7 1 15 -6 8 -7 15 -9 15 -5 0 5 8 -2 19 -13 10 -12 28 -22
40 -22 11 0 21 -6 21 -12 0 -9 4 -8 10 2 6 10 10 11 10 3 0 -7 5 -13 12 -13 6
0 27 -12 47 -27 20 -15 30 -19 22 -10 -12 15 -12 17 3 11 9 -3 16 -9 16 -13 0
-4 9 -7 20 -7 10 0 17 2 14 5 -2 2 4 14 14 25 24 26 35 56 21 56 -6 0 -8 4 -4
9 3 5 -2 16 -10 24 -8 9 -15 21 -15 27 0 7 -6 10 -13 7 -13 -5 -39 17 -31 26
3 3 -9 4 -26 3 -18 -1 -39 4 -46 12 -8 7 -14 10 -14 6 0 -3 -6 -1 -13 5 -8 6
-18 7 -22 3 -5 -4 -5 -2 -2 4 3 6 -6 17 -21 25 -15 8 -29 17 -32 21 -3 3 -12
8 -20 10 -8 2 -21 11 -28 21 -7 9 -24 17 -38 17 -13 0 -24 5 -24 11 0 6 -6 9
-14 6 -8 -3 -17 1 -20 10 -4 8 -13 13 -21 9 -8 -3 -15 -1 -15 5 0 6 -5 7 -10
4 -5 -3 -10 -1 -10 5 0 6 -4 8 -10 5 -5 -3 -10 0 -10 7 0 11 -2 10 -9 0 -7
-11 -9 -11 -14 2 -4 9 -16 16 -27 16 -12 0 -18 5 -15 10 3 6 1 10 -4 10 -14 0
-14 47 -1 55 6 4 7 13 1 23 -6 12 -5 24 5 36 11 16 11 22 1 35 -9 11 -9 13 0
8 8 -5 15 2 19 20 4 15 11 33 16 40 6 7 4 13 -4 16 -10 4 -10 6 0 6 6 1 12 7
12 14 0 19 36 46 59 44 12 -1 21 -6 21 -12 0 -5 5 -3 10 5 6 10 10 11 10 3 0
-7 9 -13 20 -13 11 0 20 -7 20 -15 0 -8 5 -15 11 -15 5 0 7 5 3 11 -4 8 0 8
15 0 12 -7 27 -9 33 -5 7 4 8 3 4 -4 -5 -8 0 -12 13 -12 12 0 23 1 25 3 2 1
14 -9 26 -23 12 -14 19 -19 15 -12 -3 6 -2 12 4 12 5 0 11 -5 13 -10 2 -6 14
-12 27 -15 13 -2 29 -12 37 -22 11 -14 13 -15 14 -3 0 11 2 12 8 3 5 -7 27
-14 50 -15 23 -1 42 -6 42 -11 0 -5 9 -7 20 -4 11 3 26 -1 34 -8 10 -11 16
-11 26 -2 10 9 11 9 6 -1 -6 -11 5 -17 27 -13 4 0 7 -3 7 -9 0 -5 8 -10 19
-10 10 0 24 -7 31 -15 7 -9 19 -14 27 -11 8 3 11 2 8 -3 -3 -5 0 -13 7 -17 18
-11 48 -12 48 -2 0 5 4 7 10 3 5 -3 18 3 30 15 24 24 29 85 6 77 -10 -4 -13
-1 -10 7 7 18 -22 39 -46 33 -11 -3 -20 -1 -20 5 0 6 -7 7 -16 4 -8 -3 -13 -2
-10 3 3 5 -1 14 -9 21 -9 8 -15 8 -15 2 0 -6 -8 -9 -17 -7 -10 2 -24 4 -31 4
-8 1 -10 6 -6 14 6 9 4 9 -8 -1 -9 -7 -18 -9 -20 -3 -1 5 -10 11 -18 13 -14 3
-21 7 -55 37 -9 7 -19 10 -22 7 -3 -3 -12 -1 -18 4 -7 6 -24 11 -39 12 -14 1
-26 7 -26 12 0 5 -3 6 -7 3 -3 -4 -17 0 -29 8 -17 11 -24 12 -27 2 -4 -9 -6
-9 -6 1 -1 6 -6 12 -11 12 -11 0 -102 41 -110 49 -3 3 -18 7 -35 9 -16 2 -34
7 -40 10 -5 4 -19 7 -30 7 -11 0 -27 6 -35 14 -14 14 -23 61 -11 61 4 0 6 12
5 28 -1 15 3 33 9 39 5 7 7 24 5 38 -3 15 -1 22 5 18 6 -4 8 0 4 10 -3 8 1 21
9 27 18 15 130 16 147 1 10 -8 17 -7 25 1 9 9 12 9 12 -1 0 -7 4 -10 9 -7 5 3
11 -1 15 -9 3 -8 12 -12 20 -9 8 3 17 0 21 -5 3 -6 10 -9 15 -6 4 3 20 -2 36
-10 15 -7 31 -12 36 -9 4 3 8 2 8 -3 0 -4 13 -8 30 -9 16 -1 27 2 25 7 -3 4 8
1 25 -7 16 -9 34 -13 39 -10 5 4 13 1 17 -5 4 -8 9 -7 15 2 5 8 9 9 9 4 0 -6
17 -12 38 -13 20 -2 39 -7 40 -12 2 -6 12 -10 22 -10 9 0 23 -6 29 -14 7 -8
20 -12 30 -9 10 3 22 0 25 -6 4 -5 13 -8 21 -4 8 3 15 1 15 -5 0 -13 61 -4 75
10 7 8 5 9 -5 3 -12 -6 -13 -5 -2 6 16 17 16 69 0 69 -10 0 -9 3 1 9 10 6 3
12 -23 21 -21 7 -40 9 -43 6 -4 -3 -12 -1 -20 5 -7 6 -13 8 -13 4 0 -5 -9 0
-19 9 -11 10 -26 16 -33 13 -7 -2 -23 0 -35 4 -16 6 -23 5 -23 -4 0 -8 -3 -8
-9 2 -5 7 -14 10 -20 7 -6 -4 -11 -2 -11 4 0 6 -4 8 -10 5 -5 -3 -10 0 -10 7
0 10 -2 10 -9 -1 -6 -9 -11 -10 -15 -3 -4 6 -13 9 -21 5 -8 -3 -15 0 -15 6 0
6 -9 11 -19 11 -11 0 -21 5 -23 11 -5 15 -71 20 -80 6 -6 -9 -8 -9 -8 0 0 7
-7 10 -15 7 -8 -4 -15 -1 -15 6 0 10 -3 10 -15 0 -11 -9 -15 -9 -15 -1 0 7 -4
10 -9 6 -5 -3 -12 -1 -15 4 -4 5 -17 8 -31 7 -13 -2 -22 1 -19 5 3 5 -6 9 -20
9 -14 0 -26 6 -26 13 0 7 -3 8 -8 2 -10 -15 -35 -18 -26 -4 5 8 1 11 -13 7
-11 -3 -28 1 -38 8 -11 8 -23 10 -29 5 -7 -5 -20 1 -34 15 -12 13 -18 24 -13
24 7 0 7 9 1 26 -9 22 -8 25 5 20 12 -4 13 -2 7 12 -11 21 1 68 16 64 7 -1 12
5 12 13 0 9 7 18 15 21 8 4 15 12 15 20 0 8 4 14 8 14 8 0 10 11 14 95 1 19 6
35 10 35 4 0 5 7 2 15 -4 8 -1 15 5 15 6 0 11 5 11 11 0 5 -6 7 -12 3 -9 -6
-9 -3 0 9 9 11 12 30 8 58 -4 26 -1 48 6 56 9 11 9 16 -1 23 -7 4 -9 10 -5 13
5 3 9 24 8 46 0 23 4 41 10 41 6 0 4 5 -4 10 -12 8 -12 10 5 10 15 0 17 2 6 9
-8 5 -11 16 -8 24 3 8 0 20 -6 27 -9 10 -9 11 2 5 11 -6 13 -4 8 8 -3 10 -3
17 2 17 12 0 8 43 -4 52 -6 5 -5 8 3 8 8 0 10 5 5 13 -4 6 -8 22 -8 33 0 12
-7 30 -15 40 -9 11 -10 15 -2 10 6 -4 12 -2 12 3 0 6 -4 11 -8 11 -4 0 -9 14
-10 32 -2 17 -8 38 -14 46 -8 9 -8 16 -1 20 12 8 12 71 -1 91 -6 10 -6 12 2 7
8 -5 10 -2 6 8 -3 9 -11 16 -18 16 -6 0 -4 5 4 10 8 5 10 10 3 10 -6 0 -10 11
-8 25 1 14 -1 25 -5 25 -4 0 -7 25 -7 55 0 36 4 52 11 48 6 -4 5 1 -3 10 -7 9
-9 17 -4 17 6 0 10 23 9 50 -1 28 4 52 9 54 7 3 7 5 0 5 -6 1 -10 47 -9 119 0
64 -3 124 -7 132 -4 9 -3 23 2 33 7 12 6 17 -2 17 -6 0 -9 7 -5 15 3 8 1 15
-3 15 -5 0 -7 10 -3 22 4 16 2 19 -8 13 -9 -6 -8 -1 2 14 17 25 11 64 -16 106
-8 13 -11 27 -6 35 4 7 6 20 3 28 -3 8 -7 28 -8 46 -2 17 -4 33 -5 36 -1 3 -1
18 0 33 1 15 -3 34 -9 40 -5 7 -9 22 -9 32 1 11 -2 32 -5 48 -4 15 -3 27 2 27
6 0 6 14 -1 36 -5 20 -7 38 -4 42 3 3 0 12 -7 20 -9 13 -9 14 1 8 9 -5 12 16
12 97 0 74 4 108 13 115 9 8 13 35 12 87 -1 41 2 75 6 75 4 0 4 14 -1 30 -5
17 -6 30 -2 30 4 0 7 30 7 68 0 47 4 71 15 80 8 8 10 11 3 8 -7 -4 -12 1 -12
11 -1 10 -1 25 -1 33 -1 14 7 55 10 55 10 0 17 96 8 101 -4 3 -4 13 1 22 5 9
9 20 10 25 1 4 1 8 2 10 6 17 4 47 -4 47 -5 0 -6 8 -2 18 4 9 9 33 11 52 6 67
15 100 26 100 7 0 7 4 -1 14 -9 10 -7 16 5 27 13 11 13 15 2 23 -13 11 -19 66
-7 66 3 0 4 12 1 26 -4 21 -2 25 9 19 12 -8 12 -6 0 8 -7 9 -11 23 -8 32 4 8
2 17 -3 20 -7 4 -6 13 0 25 7 13 7 21 0 25 -8 5 -7 11 1 21 9 11 8 14 -2 14
-9 0 -10 3 -4 8 6 4 11 27 13 52 2 25 5 57 6 73 2 15 -1 30 -5 33 -5 3 -6 11
-2 17 11 18 14 584 3 612 -6 15 -6 27 0 30 6 3 5 16 0 31 -7 17 -6 32 0 45 6
10 7 19 2 19 -4 0 -7 17 -7 38 1 20 -2 52 -6 70 -5 21 -3 32 5 32 6 0 4 5 -4
10 -12 8 -12 10 -1 10 11 0 11 3 1 15 -9 11 -10 15 -1 15 7 0 10 8 7 18 -3 9
-6 36 -8 60 -1 23 -5 42 -8 42 -3 0 -5 21 -5 48 0 26 -3 57 -7 70 -5 14 -4 22
4 22 9 0 9 3 1 11 -6 6 -9 18 -6 26 3 8 1 18 -6 22 -7 4 -13 18 -14 29 -1 12
-4 22 -8 22 -4 0 -5 8 -2 19 3 10 0 22 -6 25 -5 4 -8 13 -4 21 3 9 0 21 -6 29
-6 7 -8 16 -4 20 4 4 1 11 -7 16 -8 6 -10 10 -5 10 6 0 10 25 9 58 -1 76 -3
84 -12 78 -4 -2 -9 12 -10 32 -2 20 -6 39 -10 42 -9 6 -9 21 1 37 4 6 3 14 -3
18 -6 4 -8 11 -4 16 3 6 -2 20 -13 31 -10 13 -12 18 -4 13 8 -5 5 6 -8 23 -12
18 -19 32 -16 32 4 0 -1 7 -9 16 -9 8 -16 24 -16 34 0 10 -5 22 -10 25 -6 4
-8 11 -5 16 4 5 -1 12 -10 15 -13 6 -14 8 -3 15 8 6 9 9 2 9 -7 0 -15 7 -18
16 -4 10 -2 13 7 8 9 -6 9 -4 -1 8 -7 9 -12 20 -11 24 3 21 -2 35 -11 29 -5
-3 -7 0 -4 9 3 8 -7 34 -24 58 -29 44 -46 88 -33 88 4 0 6 13 3 30 -3 19 -8
27 -16 23 -6 -4 -5 0 2 9 11 14 10 18 -6 30 -22 16 -44 53 -35 61 11 11 -51
29 -104 31 -29 0 -53 4 -53 8 0 4 -11 3 -25 -2 -14 -5 -25 -7 -25 -3 0 3 -10
-2 -22 -13 -12 -10 -18 -13 -14 -6 7 11 4 11 -12 1 -12 -7 -18 -17 -16 -21 3
-4 0 -8 -6 -8 -7 0 -10 -7 -7 -14 4 -10 1 -13 -8 -9 -8 3 -18 -2 -21 -11 -3
-9 -10 -14 -14 -11 -5 3 -11 1 -15 -5 -4 -6 -11 -8 -16 -5 -5 4 -9 1 -9 -5 0
-6 -7 -18 -15 -26 -8 -9 -15 -13 -15 -9 0 3 -6 0 -14 -7 -10 -9 -11 -15 -2
-20 8 -6 8 -8 -1 -8 -15 0 -53 -36 -53 -50 0 -5 -5 -10 -11 -10 -5 0 -7 6 -3
13 4 6 -24 -20 -63 -60 -39 -39 -74 -69 -79 -65 -4 4 -5 2 -1 -4 3 -5 -10 -27
-29 -48 -19 -20 -34 -44 -34 -52 0 -9 -5 -12 -12 -8 -8 5 -9 2 -5 -9 3 -9 3
-16 -1 -16 -20 3 -33 -2 -27 -11 3 -5 -1 -10 -9 -10 -9 0 -16 -5 -16 -10 0 -6
-20 -31 -45 -56 -25 -24 -45 -49 -45 -55 0 -6 -4 -8 -9 -5 -5 3 -12 -1 -15
-10 -3 -9 -11 -12 -18 -8 -8 5 -9 2 -4 -12 4 -10 4 -16 1 -12 -3 3 -18 -5 -32
-18 -14 -13 -31 -21 -37 -17 -6 3 -8 3 -4 -2 8 -9 -29 -45 -45 -45 -6 0 -7 -3
-4 -7 4 -3 -6 -19 -22 -34 -16 -15 -27 -30 -23 -33 3 -3 0 -6 -6 -6 -6 0 -9
-6 -6 -14 3 -8 -3 -16 -16 -19 -12 -3 -19 -10 -15 -16 3 -6 -1 -11 -10 -11
-12 0 -15 -5 -11 -17 4 -10 4 -14 0 -10 -4 3 -24 -11 -45 -32 -20 -22 -40 -36
-44 -33 -4 4 -5 2 -3 -4 2 -6 -16 -29 -40 -52 -24 -23 -40 -42 -35 -42 4 0 1
-5 -7 -10 -8 -5 -16 -14 -16 -20 -1 -5 -2 -14 -3 -20 0 -5 -8 -10 -17 -10 -8
0 -13 -4 -10 -9 3 -5 -1 -12 -10 -15 -9 -3 -12 -11 -8 -18 5 -8 2 -9 -9 -5
-12 4 -14 2 -10 -10 4 -11 2 -14 -5 -9 -11 6 -17 -5 -13 -26 0 -5 -5 -7 -12
-5 -6 1 -11 -5 -9 -13 2 -8 0 -12 -4 -8 -10 11 -56 -42 -50 -58 3 -9 0 -11
-11 -7 -12 5 -15 2 -10 -10 3 -9 3 -16 -1 -16 -18 3 -35 -2 -29 -8 4 -3 0 -14
-8 -23 -9 -10 -18 -27 -20 -40 -2 -12 -9 -28 -15 -34 -5 -7 -7 -16 -3 -19 3
-4 2 -7 -4 -7 -6 0 -18 -15 -27 -34 -11 -24 -25 -36 -46 -41 -19 -4 -28 -11
-23 -18 5 -8 2 -8 -9 0 -8 7 -17 11 -19 9 -2 -3 -15 4 -29 16 -14 11 -18 16
-10 12 9 -4 7 1 -4 12 -11 10 -31 20 -45 21 -14 0 -27 6 -29 12 -2 6 -7 9 -12
6 -4 -3 -13 2 -20 10 -7 8 -19 15 -26 15 -8 0 -14 4 -14 9 0 5 -16 15 -35 22
-19 7 -35 17 -35 21 0 5 -11 6 -25 4 -15 -3 -24 0 -22 7 1 6 -8 13 -21 15 -12
2 -20 8 -17 13 4 5 -1 9 -9 9 -9 0 -16 5 -16 10 0 7 -8 6 -22 -1 -27 -14 -28
-14 -38 1 -4 7 -19 13 -34 13 -14 1 -26 6 -26 11 0 5 -6 3 -14 -3 -10 -8 -16
-9 -21 -1 -3 5 -19 10 -36 10 -16 0 -29 5 -29 11 0 8 -4 8 -14 0 -10 -9 -16
-8 -26 4 -10 12 -15 13 -21 4 -6 -10 -11 -10 -25 2 -16 12 -17 12 -10 -1 4 -8
0 -6 -8 4 -9 11 -16 16 -16 11 0 -5 -9 1 -21 13 -11 12 -24 20 -30 17 -5 -4
-9 -2 -9 4 0 12 -32 2 -42 -13 -5 -8 -8 -7 -8 1 0 7 -7 10 -15 7 -8 -4 -15 -2
-15 4 0 5 -22 10 -49 10 -27 1 -62 7 -77 13 -16 7 -33 11 -38 10 -5 -1 -12 3
-16 9 -7 12 -33 17 -113 23 -26 3 -50 6 -52 9 -10 10 -65 -4 -58 -16 5 -8 3
-8 -8 0 -8 6 -25 10 -39 10 -14 -1 -30 5 -36 13 -9 11 -12 12 -19 1 -6 -9 -4
-11 5 -5 9 5 11 4 6 -4 -6 -9 -11 -9 -22 0 -17 14 -19 23 -2 13 6 -4 8 -3 4 4
-3 6 -15 9 -25 7 -11 -2 -22 2 -24 9 -5 14 -39 23 -112 31 -22 3 -49 6 -60 8
-11 3 -28 0 -37 -5 -12 -6 -18 -5 -18 3 0 9 -3 9 -14 0 -10 -8 -16 -9 -21 -1
-3 6 -11 7 -17 4 -14 -9 -123 -8 -137 1 -6 3 -11 2 -11 -3 0 -6 -14 -7 -34 -2
-19 4 -40 4 -47 -1 -7 -4 -20 -4 -29 1 -9 5 -23 4 -33 -1 -12 -7 -17 -6 -17 1
0 6 -5 8 -11 5 -13 -8 -193 -10 -206 -2 -5 3 -15 2 -23 -3 -9 -5 -19 -5 -27 2
-7 6 -13 7 -13 2 0 -5 -27 -10 -59 -10 -32 -1 -67 -7 -78 -13 -15 -7 -24 -7
-33 2 -7 7 -10 7 -7 1 4 -7 -5 -11 -23 -12 -16 0 -38 -6 -50 -12 -11 -6 -19
-7 -18 -3 2 4 0 8 -3 8 -3 0 -13 8 -23 18 -10 9 -22 15 -27 12 -5 -4 -9 1 -9
10 0 10 5 14 13 10 6 -4 3 0 -7 9 -10 8 -23 13 -28 9 -6 -3 -6 2 0 13 11 23 5
47 -11 37 -7 -4 -7 -1 1 9 9 11 10 18 2 23 -5 3 -10 17 -10 31 0 13 -5 24 -11
24 -6 0 -8 9 -4 20 4 12 2 20 -5 20 -6 0 -8 -4 -5 -10 3 -5 2 -10 -4 -10 -5 0
-9 9 -8 19 0 11 5 17 10 14 5 -3 7 0 5 8 -3 8 -14 13 -24 11 -18 -2 -18 -2 -1
8 13 9 15 15 7 31 -8 14 -7 19 1 19 7 0 9 3 6 7 -4 3 -1 13 6 21 10 13 9 14
-2 7 -11 -6 -13 -4 -8 8 4 10 2 14 -7 11 -7 -3 -13 2 -13 10 0 8 6 12 12 10 6
-3 12 2 12 10 0 8 -5 12 -12 10 -6 -3 -11 6 -11 20 0 14 4 22 8 20 4 -3 8 0 8
5 0 6 -5 11 -11 11 -7 0 -8 11 -4 30 4 17 2 30 -3 30 -5 0 -13 7 -16 16 -6 15
-4 15 11 3 15 -12 16 -12 8 1 -4 8 -15 24 -24 35 -14 18 -14 18 0 7 13 -9 16
-9 16 3 0 8 -7 17 -15 20 -8 3 -12 12 -9 20 4 8 -2 17 -15 21 -16 5 -18 8 -7
15 12 7 12 10 0 21 -11 11 -13 11 -6 -1 5 -9 4 -12 -2 -8 -5 3 -9 16 -8 29 1
13 -3 26 -9 30 -5 4 -9 23 -8 43 2 24 -1 34 -8 30 -13 -8 -9 17 5 27 6 5 5 8
-3 8 -7 0 -11 4 -7 9 3 5 -2 17 -11 25 -11 12 -12 16 -2 16 10 0 9 3 -2 10 -8
5 -10 10 -5 10 6 0 2 5 -8 11 -13 8 -15 14 -7 29 12 22 13 33 3 27 -5 -3 -15
2 -23 11 -13 14 -13 15 1 10 12 -5 14 0 11 23 -2 16 -8 29 -13 29 -6 0 -5 10
2 21 8 15 8 19 0 15 -7 -5 -11 4 -11 23 0 18 -5 31 -12 32 -7 0 -4 4 7 9 l20
9 -20 0 c-17 1 -17 3 -5 11 12 8 12 10 1 10 -11 0 -11 3 0 17 12 15 12 16 -2
11 -13 -5 -16 -2 -12 13 3 11 0 19 -7 19 -8 0 -10 9 -6 25 5 18 3 23 -7 19 -8
-3 -14 2 -14 10 0 8 4 13 8 10 4 -2 11 1 15 7 4 8 3 9 -4 5 -7 -4 -12 -2 -12
4 0 6 -4 9 -9 6 -5 -4 -7 4 -3 16 5 21 4 22 -14 8 -18 -14 -18 -14 -4 4 16 21
23 49 9 40 -5 -3 -6 -10 -3 -16 4 -6 2 -8 -4 -5 -5 4 -8 16 -5 27 4 14 0 20
-11 20 -10 0 -14 5 -11 10 4 6 11 8 16 5 15 -10 10 2 -8 16 -14 12 -16 12 -8
0 5 -10 4 -12 -3 -7 -9 5 -9 13 -1 28 8 15 8 19 0 14 -6 -4 -11 -2 -11 4 0 6
-4 8 -10 5 -6 -3 -7 1 -4 9 3 9 11 13 17 9 6 -3 7 -1 3 6 -4 6 -11 9 -16 6
-10 -6 -18 14 -15 43 1 15 -3 21 -11 18 -8 -3 -11 0 -7 11 3 8 0 19 -8 24 -9
6 -10 9 -2 9 7 0 17 -8 23 -17 11 -17 11 -17 6 0 -3 10 -6 21 -6 23 0 2 -6 4
-14 4 -8 0 -17 7 -20 16 -3 8 -2 12 4 9 6 -3 7 1 4 9 -3 9 -11 16 -16 16 -6 0
-4 8 3 17 10 11 10 14 2 9 -8 -4 -13 -2 -13 4 0 6 -4 9 -9 5 -6 -3 -8 3 -6 14
2 13 -3 22 -16 26 -11 4 -17 10 -15 14 3 4 -4 14 -15 21 -10 8 -19 20 -19 27
0 7 -5 13 -11 13 -5 0 -8 3 -6 8 5 10 -30 42 -38 34 -3 -3 -8 4 -12 16 -3 12
-10 22 -15 22 -5 0 -6 5 -3 10 3 6 -2 10 -11 10 -10 0 -15 3 -11 6 6 7 -3 20
-46 65 -32 33 -28 32 -45 14z m653 -1684 c3 -5 2 -12 -3 -15 -5 -3 -9 1 -9 9
0 17 3 19 12 6z m-2631 -2077 c3 -8 2 -12 -4 -9 -6 3 -10 10 -10 16 0 14 7 11
14 -7z m-14 -89 c0 -2 -10 -9 -22 -15 -22 -11 -22 -10 -4 4 21 17 26 19 26 11z
m7955 -3985 c3 -6 -1 -7 -9 -4 -18 7 -21 14 -7 14 6 0 13 -4 16 -10z"/>
<path d="M4193 9165 c0 -8 4 -15 9 -15 4 0 8 4 8 9 0 6 -4 12 -8 15 -5 3 -9
-1 -9 -9z"/>
<path d="M2660 8129 c0 -5 5 -7 10 -4 6 3 10 8 10 11 0 2 -4 4 -10 4 -5 0 -10
-5 -10 -11z"/>
<path d="M1903 6145 c0 -8 4 -12 9 -9 5 3 6 10 3 15 -9 13 -12 11 -12 -6z"/>
<path d="M1854 5924 c-18 -14 -18 -15 4 -4 12 6 22 13 22 15 0 8 -5 6 -26 -11z"/>
<path d="M1790 5719 c0 -5 5 -7 10 -4 6 3 10 8 10 11 0 2 -4 4 -10 4 -5 0 -10
-5 -10 -11z"/>
<path d="M1766 5673 c-6 -14 -5 -15 5 -6 7 7 10 15 7 18 -3 3 -9 -2 -12 -12z"/>
</g>
</svg>
